<svg id="visual" viewBox="0 0 900 900" width="900" height="900" xmlns="http://www.w3.org/2000/svg" xmlns:xlink="http://www.w3.org/1999/xlink" version="1.1"><rect x="0" y="0" width="900" height="900" fill="#a869c5"></rect><path d="M0 298L15 300.3C30 302.7 60 307.3 90 327.2C120 347 150 382 180 399.7C210 417.3 240 417.7 270 412C300 406.3 330 394.7 360 376C390 357.3 420 331.7 450 327C480 322.3 510 338.7 540 359C570 379.3 600 403.7 630 411.8C660 420 690 412 720 393.5C750 375 780 346 810 331C840 316 870 315 885 314.5L900 314L900 901L885 901C870 901 840 901 810 901C780 901 750 901 720 901C690 901 660 901 630 901C600 901 570 901 540 901C510 901 480 901 450 901C420 901 390 901 360 901C330 901 300 901 270 901C240 901 210 901 180 901C150 901 120 901 90 901C60 901 30 901 15 901L0 901Z" fill="#ef9a73"></path><path d="M0 435L15 445.3C30 455.7 60 476.3 90 479.5C120 482.7 150 468.3 180 475C210 481.7 240 509.3 270 502.3C300 495.3 330 453.7 360 452.7C390 451.7 420 491.3 450 513.5C480 535.7 510 540.3 540 519.7C570 499 600 453 630 450C660 447 690 487 720 506C750 525 780 523 810 518.5C840 514 870 507 885 503.5L900 500L900 901L885 901C870 901 840 901 810 901C780 901 750 901 720 901C690 901 660 901 630 901C600 901 570 901 540 901C510 901 480 901 450 901C420 901 390 901 360 901C330 901 300 901 270 901C240 901 210 901 180 901C150 901 120 901 90 901C60 901 30 901 15 901L0 901Z" fill="#c8756b"></path><path d="M0 555L15 567.2C30 579.3 60 603.7 90 610C120 616.3 150 604.7 180 599.8C210 595 240 597 270 588.7C300 580.3 330 561.7 360 560C390 558.3 420 573.7 450 576C480 578.3 510 567.7 540 562.7C570 557.7 600 558.3 630 555.3C660 552.3 690 545.7 720 539.7C750 533.7 780 528.3 810 537.8C840 547.3 870 571.7 885 583.8L900 596L900 901L885 901C870 901 840 901 810 901C780 901 750 901 720 901C690 901 660 901 630 901C600 901 570 901 540 901C510 901 480 901 450 901C420 901 390 901 360 901C330 901 300 901 270 901C240 901 210 901 180 901C150 901 120 901 90 901C60 901 30 901 15 901L0 901Z" fill="#9c555f"></path><path d="M0 687L15 677C30 667 60 647 90 643.7C120 640.3 150 653.7 180 668C210 682.3 240 697.7 270 694C300 690.3 330 667.7 360 664.2C390 660.7 420 676.3 450 687.7C480 699 510 706 540 701C570 696 600 679 630 667.8C660 656.7 690 651.3 720 657.8C750 664.3 780 682.7 810 682.8C840 683 870 665 885 656L900 647L900 901L885 901C870 901 840 901 810 901C780 901 750 901 720 901C690 901 660 901 630 901C600 901 570 901 540 901C510 901 480 901 450 901C420 901 390 901 360 901C330 901 300 901 270 901C240 901 210 901 180 901C150 901 120 901 90 901C60 901 30 901 15 901L0 901Z" fill="#6d3a4e"></path><path d="M0 785L15 779.3C30 773.7 60 762.3 90 765.2C120 768 150 785 180 784C210 783 240 764 270 754C300 744 330 743 360 752.5C390 762 420 782 450 779C480 776 510 750 540 749.3C570 748.7 600 773.3 630 782.5C660 791.7 690 785.3 720 778.2C750 771 780 763 810 767C840 771 870 787 885 795L900 803L900 901L885 901C870 901 840 901 810 901C780 901 750 901 720 901C690 901 660 901 630 901C600 901 570 901 540 901C510 901 480 901 450 901C420 901 390 901 360 901C330 901 300 901 270 901C240 901 210 901 180 901C150 901 120 901 90 901C60 901 30 901 15 901L0 901Z" fill="#402338"></path></svg>