<svg id="visual" viewBox="0 0 900 900" width="900" height="900" xmlns="http://www.w3.org/2000/svg" xmlns:xlink="http://www.w3.org/1999/xlink" version="1.1"><rect x="0" y="0" width="900" height="900" fill="#452D50"></rect><path d="M0 495L25 483C50 471 100 447 150 462.5C200 478 250 533 300 559.8C350 586.7 400 585.3 450 585.7C500 586 550 588 600 578.7C650 569.3 700 548.7 750 545C800 541.3 850 554.7 875 561.3L900 568L900 901L875 901C850 901 800 901 750 901C700 901 650 901 600 901C550 901 500 901 450 901C400 901 350 901 300 901C250 901 200 901 150 901C100 901 50 901 25 901L0 901Z" fill="#6c3d5f"></path><path d="M0 549L25 552.2C50 555.3 100 561.7 150 568C200 574.3 250 580.7 300 566C350 551.3 400 515.7 450 523.3C500 531 550 582 600 584.7C650 587.3 700 541.7 750 516.3C800 491 850 486 875 483.5L900 481L900 901L875 901C850 901 800 901 750 901C700 901 650 901 600 901C550 901 500 901 450 901C400 901 350 901 300 901C250 901 200 901 150 901C100 901 50 901 25 901L0 901Z" fill="#824766"></path><path d="M0 601L25 594.2C50 587.3 100 573.7 150 564.2C200 554.7 250 549.3 300 557.5C350 565.7 400 587.3 450 599.2C500 611 550 613 600 616.3C650 619.7 700 624.3 750 609.7C800 595 850 561 875 544L900 527L900 901L875 901C850 901 800 901 750 901C700 901 650 901 600 901C550 901 500 901 450 901C400 901 350 901 300 901C250 901 200 901 150 901C100 901 50 901 25 901L0 901Z" fill="#98516a"></path><path d="M0 624L25 630.3C50 636.7 100 649.3 150 652.7C200 656 250 650 300 641.3C350 632.7 400 621.3 450 620.8C500 620.3 550 630.7 600 645.2C650 659.7 700 678.3 750 668.5C800 658.7 850 620.3 875 601.2L900 582L900 901L875 901C850 901 800 901 750 901C700 901 650 901 600 901C550 901 500 901 450 901C400 901 350 901 300 901C250 901 200 901 150 901C100 901 50 901 25 901L0 901Z" fill="#ad5d6e"></path><path d="M0 637L25 641.2C50 645.3 100 653.7 150 667C200 680.3 250 698.7 300 706.8C350 715 400 713 450 713.3C500 713.7 550 716.3 600 707C650 697.7 700 676.3 750 676.7C800 677 850 699 875 710L900 721L900 901L875 901C850 901 800 901 750 901C700 901 650 901 600 901C550 901 500 901 450 901C400 901 350 901 300 901C250 901 200 901 150 901C100 901 50 901 25 901L0 901Z" fill="#c16a70"></path><path d="M0 725L25 727.2C50 729.3 100 733.7 150 734.2C200 734.7 250 731.3 300 724.3C350 717.3 400 706.7 450 714.7C500 722.7 550 749.3 600 761.5C650 773.7 700 771.3 750 758.5C800 745.7 850 722.3 875 710.7L900 699L900 901L875 901C850 901 800 901 750 901C700 901 650 901 600 901C550 901 500 901 450 901C400 901 350 901 300 901C250 901 200 901 150 901C100 901 50 901 25 901L0 901Z" fill="#d27871"></path><path d="M0 767L25 766.3C50 765.7 100 764.3 150 768.3C200 772.3 250 781.7 300 788.8C350 796 400 801 450 796.8C500 792.7 550 779.3 600 780.7C650 782 700 798 750 803.8C800 809.7 850 805.3 875 803.2L900 801L900 901L875 901C850 901 800 901 750 901C700 901 650 901 600 901C550 901 500 901 450 901C400 901 350 901 300 901C250 901 200 901 150 901C100 901 50 901 25 901L0 901Z" fill="#e28872"></path><path d="M0 805L25 812C50 819 100 833 150 833.2C200 833.3 250 819.7 300 815.8C350 812 400 818 450 824.5C500 831 550 838 600 837.8C650 837.7 700 830.3 750 826.2C800 822 850 821 875 820.5L900 820L900 901L875 901C850 901 800 901 750 901C700 901 650 901 600 901C550 901 500 901 450 901C400 901 350 901 300 901C250 901 200 901 150 901C100 901 50 901 25 901L0 901Z" fill="#ef9a73"></path></svg>