<svg id="visual" viewBox="0 0 900 900" width="900" height="900" xmlns="http://www.w3.org/2000/svg" xmlns:xlink="http://www.w3.org/1999/xlink" version="1.1"><g stroke-width="1" stroke-linejoin="bevel"><path d="M490 482L576 428L481 409Z" fill="#d67c72" stroke="#FFFFFF"></path><path d="M490 482L606 534L576 428Z" fill="#c76f71" stroke="#FFFFFF"></path><path d="M395 311L393 369L481 409Z" fill="#7f4565" stroke="#FFFFFF"></path><path d="M481 409L361 467L490 482Z" fill="#b7636f" stroke="#FFFFFF"></path><path d="M576 428L527 291L481 409Z" fill="#b7636f" stroke="#FFFFFF"></path><path d="M393 369L361 467L481 409Z" fill="#e48b72" stroke="#FFFFFF"></path><path d="M490 482L461 613L606 534Z" fill="#a5586d" stroke="#FFFFFF"></path><path d="M606 534L671 535L576 428Z" fill="#b7636f" stroke="#FFFFFF"></path><path d="M576 428L637 284L527 291Z" fill="#583558" stroke="#FFFFFF"></path><path d="M527 291L395 311L481 409Z" fill="#e48b72" stroke="#FFFFFF"></path><path d="M393 369L327 433L361 467Z" fill="#7f4565" stroke="#FFFFFF"></path><path d="M389 599L461 613L490 482Z" fill="#b7636f" stroke="#FFFFFF"></path><path d="M606 534L597 635L671 535Z" fill="#583558" stroke="#FFFFFF"></path><path d="M668 301L637 284L576 428Z" fill="#6c3d5f" stroke="#FFFFFF"></path><path d="M298 335L327 433L393 369Z" fill="#d67c72" stroke="#FFFFFF"></path><path d="M361 467L389 599L490 482Z" fill="#e48b72" stroke="#FFFFFF"></path><path d="M721 389L668 301L576 428Z" fill="#6c3d5f" stroke="#FFFFFF"></path><path d="M671 535L721 389L576 428Z" fill="#924e6a" stroke="#FFFFFF"></path><path d="M461 613L597 635L606 534Z" fill="#ef9a73" stroke="#FFFFFF"></path><path d="M284 524L389 599L361 467Z" fill="#924e6a" stroke="#FFFFFF"></path><path d="M632 216L512 213L527 291Z" fill="#6c3d5f" stroke="#FFFFFF"></path><path d="M527 291L394 228L395 311Z" fill="#6c3d5f" stroke="#FFFFFF"></path><path d="M632 216L527 291L637 284Z" fill="#d67c72" stroke="#FFFFFF"></path><path d="M763 231L632 216L668 301Z" fill="#b7636f" stroke="#FFFFFF"></path><path d="M668 301L632 216L637 284Z" fill="#924e6a" stroke="#FFFFFF"></path><path d="M512 213L394 228L527 291Z" fill="#583558" stroke="#FFFFFF"></path><path d="M395 311L298 335L393 369Z" fill="#452d50" stroke="#FFFFFF"></path><path d="M328 197L298 335L395 311Z" fill="#ef9a73" stroke="#FFFFFF"></path><path d="M233 531L284 524L327 433Z" fill="#6c3d5f" stroke="#FFFFFF"></path><path d="M327 433L284 524L361 467Z" fill="#a5586d" stroke="#FFFFFF"></path><path d="M424 729L475 691L389 599Z" fill="#6c3d5f" stroke="#FFFFFF"></path><path d="M389 599L475 691L461 613Z" fill="#b7636f" stroke="#FFFFFF"></path><path d="M461 613L475 691L597 635Z" fill="#a5586d" stroke="#FFFFFF"></path><path d="M729 664L731 600L597 635Z" fill="#ef9a73" stroke="#FFFFFF"></path><path d="M597 635L731 600L671 535Z" fill="#d67c72" stroke="#FFFFFF"></path><path d="M671 535L809 492L721 389Z" fill="#c76f71" stroke="#FFFFFF"></path><path d="M731 600L809 492L671 535Z" fill="#452d50" stroke="#FFFFFF"></path><path d="M721 389L768 284L668 301Z" fill="#583558" stroke="#FFFFFF"></path><path d="M827 429L768 284L721 389Z" fill="#924e6a" stroke="#FFFFFF"></path><path d="M233 531L268 586L284 524Z" fill="#c76f71" stroke="#FFFFFF"></path><path d="M284 524L268 586L389 599Z" fill="#b7636f" stroke="#FFFFFF"></path><path d="M475 691L600 728L597 635Z" fill="#ef9a73" stroke="#FFFFFF"></path><path d="M600 728L729 664L597 635Z" fill="#ef9a73" stroke="#FFFFFF"></path><path d="M731 600L830 613L809 492Z" fill="#c76f71" stroke="#FFFFFF"></path><path d="M809 492L827 429L721 389Z" fill="#6c3d5f" stroke="#FFFFFF"></path><path d="M169 395L233 531L327 433Z" fill="#924e6a" stroke="#FFFFFF"></path><path d="M310 693L424 729L389 599Z" fill="#ef9a73" stroke="#FFFFFF"></path><path d="M475 691L462 789L600 728Z" fill="#c76f71" stroke="#FFFFFF"></path><path d="M438 98L328 197L394 228Z" fill="#ef9a73" stroke="#FFFFFF"></path><path d="M394 228L328 197L395 311Z" fill="#a5586d" stroke="#FFFFFF"></path><path d="M298 335L169 395L327 433Z" fill="#e48b72" stroke="#FFFFFF"></path><path d="M438 98L394 228L512 213Z" fill="#583558" stroke="#FFFFFF"></path><path d="M768 284L763 231L668 301Z" fill="#924e6a" stroke="#FFFFFF"></path><path d="M900 260L763 231L768 284Z" fill="#d67c72" stroke="#FFFFFF"></path><path d="M700 160L605 131L632 216Z" fill="#583558" stroke="#FFFFFF"></path><path d="M632 216L605 131L512 213Z" fill="#ef9a73" stroke="#FFFFFF"></path><path d="M268 586L310 693L389 599Z" fill="#c76f71" stroke="#FFFFFF"></path><path d="M221 693L310 693L268 586Z" fill="#d67c72" stroke="#FFFFFF"></path><path d="M763 231L700 160L632 216Z" fill="#ef9a73" stroke="#FFFFFF"></path><path d="M701 773L779 663L729 664Z" fill="#e48b72" stroke="#FFFFFF"></path><path d="M729 664L779 663L731 600Z" fill="#6c3d5f" stroke="#FFFFFF"></path><path d="M809 492L900 461L827 429Z" fill="#7f4565" stroke="#FFFFFF"></path><path d="M779 663L830 613L731 600Z" fill="#924e6a" stroke="#FFFFFF"></path><path d="M517 76L438 98L512 213Z" fill="#a5586d" stroke="#FFFFFF"></path><path d="M397 782L462 789L424 729Z" fill="#a5586d" stroke="#FFFFFF"></path><path d="M424 729L462 789L475 691Z" fill="#924e6a" stroke="#FFFFFF"></path><path d="M600 728L701 773L729 664Z" fill="#452d50" stroke="#FFFFFF"></path><path d="M175 294L169 395L298 335Z" fill="#d67c72" stroke="#FFFFFF"></path><path d="M700 160L689 118L605 131Z" fill="#d67c72" stroke="#FFFFFF"></path><path d="M605 131L517 76L512 213Z" fill="#452d50" stroke="#FFFFFF"></path><path d="M800 116L689 118L700 160Z" fill="#583558" stroke="#FFFFFF"></path><path d="M310 693L397 782L424 729Z" fill="#6c3d5f" stroke="#FFFFFF"></path><path d="M502 0L517 76L618 0Z" fill="#a5586d" stroke="#FFFFFF"></path><path d="M462 789L620 796L600 728Z" fill="#a5586d" stroke="#FFFFFF"></path><path d="M620 796L701 773L600 728Z" fill="#924e6a" stroke="#FFFFFF"></path><path d="M900 687L900 636L830 613Z" fill="#d67c72" stroke="#FFFFFF"></path><path d="M830 613L900 461L809 492Z" fill="#d67c72" stroke="#FFFFFF"></path><path d="M827 429L900 388L768 284Z" fill="#583558" stroke="#FFFFFF"></path><path d="M328 197L175 294L298 335Z" fill="#6c3d5f" stroke="#FFFFFF"></path><path d="M167 174L175 294L328 197Z" fill="#452d50" stroke="#FFFFFF"></path><path d="M900 461L900 388L827 429Z" fill="#924e6a" stroke="#FFFFFF"></path><path d="M763 231L800 116L700 160Z" fill="#6c3d5f" stroke="#FFFFFF"></path><path d="M62 521L186 615L233 531Z" fill="#e48b72" stroke="#FFFFFF"></path><path d="M233 531L186 615L268 586Z" fill="#b7636f" stroke="#FFFFFF"></path><path d="M310 693L267 780L397 782Z" fill="#c76f71" stroke="#FFFFFF"></path><path d="M186 615L221 693L268 586Z" fill="#452d50" stroke="#FFFFFF"></path><path d="M389 0L338 90L438 98Z" fill="#452d50" stroke="#FFFFFF"></path><path d="M438 98L338 90L328 197Z" fill="#e48b72" stroke="#FFFFFF"></path><path d="M900 388L900 260L768 284Z" fill="#452d50" stroke="#FFFFFF"></path><path d="M830 613L900 636L900 461Z" fill="#c76f71" stroke="#FFFFFF"></path><path d="M900 687L830 613L779 663Z" fill="#b7636f" stroke="#FFFFFF"></path><path d="M67 316L99 427L169 395Z" fill="#452d50" stroke="#FFFFFF"></path><path d="M169 395L99 427L233 531Z" fill="#6c3d5f" stroke="#FFFFFF"></path><path d="M186 615L99 727L221 693Z" fill="#d67c72" stroke="#FFFFFF"></path><path d="M221 693L267 780L310 693Z" fill="#6c3d5f" stroke="#FFFFFF"></path><path d="M384 900L471 900L462 789Z" fill="#a5586d" stroke="#FFFFFF"></path><path d="M900 232L800 116L763 231Z" fill="#924e6a" stroke="#FFFFFF"></path><path d="M618 0L517 76L605 131Z" fill="#a5586d" stroke="#FFFFFF"></path><path d="M900 260L900 232L763 231Z" fill="#ef9a73" stroke="#FFFFFF"></path><path d="M618 0L605 131L689 118Z" fill="#a5586d" stroke="#FFFFFF"></path><path d="M517 76L502 0L438 98Z" fill="#c76f71" stroke="#FFFFFF"></path><path d="M233 75L328 197L338 90Z" fill="#7f4565" stroke="#FFFFFF"></path><path d="M233 75L167 174L328 197Z" fill="#ef9a73" stroke="#FFFFFF"></path><path d="M175 294L67 316L169 395Z" fill="#6c3d5f" stroke="#FFFFFF"></path><path d="M824 789L900 687L779 663Z" fill="#6c3d5f" stroke="#FFFFFF"></path><path d="M710 0L618 0L689 118Z" fill="#ef9a73" stroke="#FFFFFF"></path><path d="M777 900L824 789L701 773Z" fill="#583558" stroke="#FFFFFF"></path><path d="M701 773L824 789L779 663Z" fill="#583558" stroke="#FFFFFF"></path><path d="M502 0L389 0L438 98Z" fill="#ef9a73" stroke="#FFFFFF"></path><path d="M384 900L462 789L397 782Z" fill="#452d50" stroke="#FFFFFF"></path><path d="M462 789L471 900L620 796Z" fill="#e48b72" stroke="#FFFFFF"></path><path d="M620 796L678 900L701 773Z" fill="#924e6a" stroke="#FFFFFF"></path><path d="M281 0L233 75L338 90Z" fill="#ef9a73" stroke="#FFFFFF"></path><path d="M471 900L617 900L620 796Z" fill="#c76f71" stroke="#FFFFFF"></path><path d="M0 428L62 521L99 427Z" fill="#583558" stroke="#FFFFFF"></path><path d="M99 427L62 521L233 531Z" fill="#ef9a73" stroke="#FFFFFF"></path><path d="M221 693L218 809L267 780Z" fill="#583558" stroke="#FFFFFF"></path><path d="M62 521L77 589L186 615Z" fill="#7f4565" stroke="#FFFFFF"></path><path d="M72 191L175 294L167 174Z" fill="#6c3d5f" stroke="#FFFFFF"></path><path d="M72 191L67 316L175 294Z" fill="#a5586d" stroke="#FFFFFF"></path><path d="M763 0L689 118L800 116Z" fill="#ef9a73" stroke="#FFFFFF"></path><path d="M763 0L710 0L689 118Z" fill="#d67c72" stroke="#FFFFFF"></path><path d="M99 727L218 809L221 693Z" fill="#583558" stroke="#FFFFFF"></path><path d="M282 900L384 900L397 782Z" fill="#d67c72" stroke="#FFFFFF"></path><path d="M282 900L397 782L267 780Z" fill="#452d50" stroke="#FFFFFF"></path><path d="M617 900L678 900L620 796Z" fill="#c76f71" stroke="#FFFFFF"></path><path d="M900 0L763 0L800 116Z" fill="#a5586d" stroke="#FFFFFF"></path><path d="M389 0L281 0L338 90Z" fill="#e48b72" stroke="#FFFFFF"></path><path d="M233 75L105 139L167 174Z" fill="#6c3d5f" stroke="#FFFFFF"></path><path d="M77 589L99 727L186 615Z" fill="#e48b72" stroke="#FFFFFF"></path><path d="M0 680L99 727L77 589Z" fill="#b7636f" stroke="#FFFFFF"></path><path d="M900 232L900 90L800 116Z" fill="#ef9a73" stroke="#FFFFFF"></path><path d="M104 0L105 139L233 75Z" fill="#ef9a73" stroke="#FFFFFF"></path><path d="M105 139L72 191L167 174Z" fill="#b7636f" stroke="#FFFFFF"></path><path d="M221 900L282 900L218 809Z" fill="#ef9a73" stroke="#FFFFFF"></path><path d="M218 809L282 900L267 780Z" fill="#ef9a73" stroke="#FFFFFF"></path><path d="M0 315L0 428L67 316Z" fill="#ef9a73" stroke="#FFFFFF"></path><path d="M67 316L0 428L99 427Z" fill="#d67c72" stroke="#FFFFFF"></path><path d="M62 521L0 604L77 589Z" fill="#b7636f" stroke="#FFFFFF"></path><path d="M678 900L777 900L701 773Z" fill="#b7636f" stroke="#FFFFFF"></path><path d="M824 789L900 821L900 687Z" fill="#e48b72" stroke="#FFFFFF"></path><path d="M0 428L0 496L62 521Z" fill="#583558" stroke="#FFFFFF"></path><path d="M281 0L235 0L233 75Z" fill="#6c3d5f" stroke="#FFFFFF"></path><path d="M900 900L900 821L824 789Z" fill="#452d50" stroke="#FFFFFF"></path><path d="M72 191L0 315L67 316Z" fill="#a5586d" stroke="#FFFFFF"></path><path d="M0 496L0 604L62 521Z" fill="#6c3d5f" stroke="#FFFFFF"></path><path d="M74 795L218 809L99 727Z" fill="#924e6a" stroke="#FFFFFF"></path><path d="M122 900L221 900L218 809Z" fill="#c76f71" stroke="#FFFFFF"></path><path d="M0 680L74 795L99 727Z" fill="#7f4565" stroke="#FFFFFF"></path><path d="M0 604L0 680L77 589Z" fill="#583558" stroke="#FFFFFF"></path><path d="M900 90L900 0L800 116Z" fill="#c76f71" stroke="#FFFFFF"></path><path d="M105 139L0 172L72 191Z" fill="#452d50" stroke="#FFFFFF"></path><path d="M72 191L0 172L0 315Z" fill="#452d50" stroke="#FFFFFF"></path><path d="M0 91L0 172L105 139Z" fill="#583558" stroke="#FFFFFF"></path><path d="M777 900L900 900L824 789Z" fill="#c76f71" stroke="#FFFFFF"></path><path d="M235 0L104 0L233 75Z" fill="#c76f71" stroke="#FFFFFF"></path><path d="M0 900L122 900L74 795Z" fill="#a5586d" stroke="#FFFFFF"></path><path d="M74 795L122 900L218 809Z" fill="#6c3d5f" stroke="#FFFFFF"></path><path d="M104 0L0 91L105 139Z" fill="#b7636f" stroke="#FFFFFF"></path><path d="M0 680L0 802L74 795Z" fill="#6c3d5f" stroke="#FFFFFF"></path><path d="M104 0L0 0L0 91Z" fill="#a5586d" stroke="#FFFFFF"></path><path d="M0 802L0 900L74 795Z" fill="#ef9a73" stroke="#FFFFFF"></path></g></svg>